<svg width="246" height="52" viewBox="0 0 246 52" fill="none" xmlns="http://www.w3.org/2000/svg">
<path d="M10.416 50C9.34933 50 7.792 50 5.744 50C3.73867 50 2.37333 49.8507 1.648 49.552C0.922667 49.2533 0.56 48.784 0.56 48.144V7.76C0.56 6.77866 1.86133 6.01066 4.464 5.456C7.10933 4.85866 9.92533 4.56 12.912 4.56C15.8987 4.56 18.032 4.944 19.312 5.712C20.592 6.48 21.3387 7.29066 21.552 8.144L25.904 25.04H26.48L30.576 8.912C30.8747 7.76 32.2613 6.75733 34.736 5.904C37.2533 5.008 40.0053 4.56 42.992 4.56C45.9787 4.56 48.176 4.79466 49.584 5.264C51.0347 5.73333 51.76 6.33067 51.76 7.056V48.144C51.76 48.6987 50.544 49.1467 48.112 49.488C45.68 49.8293 42.7147 50 39.216 50C35.7173 50 33.968 49.3813 33.968 48.144C33.968 44.7733 34.3307 38.7787 35.056 30.16H34.48L31.152 46.864C31.024 47.504 30.4907 47.9733 29.552 48.272C28.656 48.5707 27.2907 48.72 25.456 48.72C23.6213 48.72 22.4907 48.592 22.064 48.336C21.68 48.08 21.424 47.5893 21.296 46.864L17.84 30.16H17.264C18.032 38.9493 18.416 44.944 18.416 48.144C18.416 49.2533 15.7493 49.872 10.416 50ZM68.7125 50.576C64.8298 50.576 61.7792 49.6587 59.5605 47.824C58.6645 47.056 57.8752 45.9253 57.1925 44.432C56.5525 42.9387 56.2325 41.1893 56.2325 39.184C56.2325 37.1787 56.7018 35.4293 57.6405 33.936C58.6218 32.4427 59.7952 31.2907 61.1605 30.48C62.5258 29.6693 64.1258 29.008 65.9605 28.496C68.7338 27.7707 71.7845 27.408 75.1125 27.408H77.2245C77.2245 25.6587 76.6272 24.4213 75.4325 23.696C74.9205 23.3973 74.1312 23.248 73.0645 23.248C72.0405 23.248 70.7818 23.5253 69.2885 24.08C67.8378 24.6347 66.6218 25.2107 65.6405 25.808C64.6592 26.3627 63.9978 26.64 63.6565 26.64C62.8885 26.64 61.8432 25.6373 60.5205 23.632C59.1978 21.584 58.5365 19.728 58.5365 18.064C58.5365 17.5093 59.3258 16.784 60.9045 15.888C62.4832 14.992 64.7018 14.1813 67.5605 13.456C70.4618 12.688 73.2778 12.304 76.0085 12.304C78.7392 12.304 81.0858 12.5387 83.0485 13.008C85.0538 13.4347 86.6752 13.968 87.9125 14.608C89.1925 15.248 90.2592 16.1013 91.1125 17.168C92.0085 18.2347 92.6698 19.1947 93.0965 20.048C93.5658 20.9013 93.9072 22.0107 94.1205 23.376C94.4192 24.9547 94.5685 26.896 94.5685 29.2V48.464C94.5685 48.9333 93.4165 49.3173 91.1125 49.616C88.8512 49.872 86.5898 50 84.3285 50C82.1098 50 80.6592 49.936 79.9765 49.808C79.3365 49.68 78.9525 49.5307 78.8245 49.36C78.6965 49.1893 78.5898 48.8907 78.5045 48.464L77.9925 44.816H77.4805C76.4138 48.656 73.4912 50.576 68.7125 50.576ZM77.2885 39.952V32.464C76.1792 32.464 75.2832 32.9333 74.6005 33.872C73.9178 34.8107 73.5765 35.8773 73.5765 37.072C73.5765 39.888 74.2165 41.296 75.4965 41.296C76.0512 41.296 76.4778 41.168 76.7765 40.912C77.1178 40.6133 77.2885 40.2933 77.2885 39.952ZM116.333 29.776V48.464C116.333 48.9333 115.117 49.3173 112.685 49.616C110.295 49.872 107.799 50 105.197 50C102.637 50 100.973 49.8933 100.205 49.68C99.4365 49.424 99.0525 49.0187 99.0525 48.464V16.912C99.0525 16.1013 100.226 15.2267 102.573 14.288C104.962 13.3493 107.543 12.88 110.317 12.88C113.133 12.88 114.711 13.648 115.053 15.184L115.693 18.128H116.141C116.738 16.5067 118.167 15.1413 120.429 14.032C122.69 12.88 124.951 12.304 127.213 12.304C129.474 12.304 131.053 12.6667 131.949 13.392C132.887 14.1173 133.357 15.056 133.357 16.208C133.357 17.3173 133.271 18.7467 133.101 20.496C132.93 22.2453 132.503 24.144 131.821 26.192C131.181 28.24 130.327 29.264 129.261 29.264C128.834 29.264 127.49 28.944 125.229 28.304C122.967 27.664 121.09 27.344 119.597 27.344C118.146 27.344 117.229 27.5573 116.845 27.984C116.503 28.4107 116.333 29.008 116.333 29.776ZM153.833 48.464C153.833 48.9333 152.638 49.3173 150.249 49.616C147.859 49.872 145.363 50 142.76 50C140.158 50 138.473 49.8933 137.705 49.68C136.937 49.424 136.553 49.0187 136.553 48.464V4.176C136.553 3.23733 137.747 2.32 140.137 1.424C142.569 0.527997 145.171 0.079998 147.945 0.079998C151.87 0.079998 153.833 1.06133 153.833 3.024V26.96H154.665C156.713 17.1893 158.227 12.304 159.209 12.304C161.683 12.304 164.67 12.88 168.169 14.032C171.667 15.184 173.417 16.464 173.417 17.872C173.417 18.896 172.563 20.8587 170.857 23.76C169.15 26.6613 167.379 29.0293 165.545 30.864C171.646 38.16 174.697 42.4907 174.697 43.856C174.697 45.136 172.755 46.6933 168.873 48.528C164.99 50.3627 162.259 51.28 160.681 51.28C159.913 51.28 159.102 50.3627 158.249 48.528C157.395 46.6507 156.478 43.856 155.497 40.144L153.833 42.128V48.464ZM194.072 35.536C194.072 38.3093 195.395 39.696 198.04 39.696C199.576 39.696 201.581 39.184 204.056 38.16C206.531 37.0933 207.832 36.56 207.96 36.56C208.771 36.56 209.837 37.776 211.16 40.208C212.483 42.64 213.144 44.432 213.144 45.584C213.144 47.248 211.437 48.5067 208.024 49.36C204.611 50.2133 201.261 50.64 197.976 50.64C194.733 50.64 192.003 50.384 189.784 49.872C187.608 49.36 185.816 48.72 184.408 47.952C183.043 47.1413 181.827 46.16 180.76 45.008C179.736 43.856 178.968 42.768 178.456 41.744C177.944 40.6773 177.539 39.504 177.24 38.224C176.813 36.3467 176.6 34.4053 176.6 32.4C176.6 24.6347 178.627 19.28 182.68 16.336C184.685 14.8427 186.925 13.7973 189.4 13.2C191.875 12.6027 194.797 12.304 198.168 12.304C208.963 12.304 214.36 16.0587 214.36 23.568C214.36 31.5467 208.301 35.536 196.184 35.536H194.072ZM193.944 26.192V30.416C195.181 30.416 196.184 29.9253 196.952 28.944C197.763 27.9627 198.168 26.768 198.168 25.36C198.168 22.8 197.507 21.52 196.184 21.52C194.691 21.52 193.944 23.0773 193.944 26.192ZM243.33 49.424C242.562 50.1493 240.812 50.512 238.082 50.512C235.351 50.512 233.09 50.3413 231.298 50C229.506 49.616 227.799 48.8907 226.178 47.824C223.063 45.7333 221.506 41.3813 221.506 34.768V24.784H218.306C217.836 24.784 217.431 24.2933 217.09 23.312C216.748 22.3307 216.578 20.9867 216.578 19.28C216.578 17.5733 216.834 16.08 217.346 14.8C217.9 13.4773 218.604 12.816 219.458 12.816H221.506V5.072C221.506 3.74933 222.786 2.68266 225.345 1.872C227.948 1.06133 230.487 0.655998 232.962 0.655998C236.844 0.655998 238.786 1.616 238.786 3.536V12.816H243.522C244.631 12.816 245.186 14.416 245.186 17.616C245.186 19.7067 244.93 21.4347 244.418 22.8C243.948 24.1227 243.33 24.784 242.562 24.784H238.786V36.496C238.786 37.648 239.276 38.48 240.258 38.992C241.239 39.4613 242.092 39.696 242.818 39.696C243.586 39.696 244.055 40.0587 244.226 40.784C244.396 41.5093 244.482 42.5973 244.482 44.048C244.482 46.9067 244.098 48.6987 243.33 49.424Z" fill="white"/>
</svg>
